<?xml version="1.0" encoding="UTF-8"?>
<mxfile host="app.diagrams.net" modified="2024-03-19T12:00:00.000Z" agent="Mozilla/5.0" version="21.7.5" etag="your-etag" type="device">
  <diagram id="dr-architecture" name="DR Architecture">
    <mxGraphModel dx="1422" dy="762" grid="1" gridSize="10" guides="1" tooltips="1" connect="1" arrows="1" fold="1" page="1" pageScale="1" pageWidth="827" pageHeight="1169" math="0" shadow="0">
      <root>
        <mxCell id="0"/>
        <mxCell id="1" parent="0"/>
        
        <!-- AWS Regions -->
        <mxCell id="region-alpha" value="AWS Region Alpha" style="swimlane;fontStyle=0;childLayout=stackLayout;horizontal=1;startSize=30;horizontalStack=0;resizeParent=1;resizeParentMax=0;resizeLast=0;collapsible=1;marginBottom=0;fillColor=#dae8fc;strokeColor=#6c8ebf;" vertex="1" parent="1">
          <mxGeometry x="40" y="40" width="320" height="400" as="geometry"/>
        </mxCell>
        
        <mxCell id="region-beta" value="AWS Region Beta" style="swimlane;fontStyle=0;childLayout=stackLayout;horizontal=1;startSize=30;horizontalStack=0;resizeParent=1;resizeParentMax=0;resizeLast=0;collapsible=1;marginBottom=0;fillColor=#dae8fc;strokeColor=#6c8ebf;" vertex="1" parent="1">
          <mxGeometry x="440" y="40" width="320" height="400" as="geometry"/>
        </mxCell>
        
        <!-- VPCs -->
        <mxCell id="vpc-alpha" value="VPC" style="swimlane;fontStyle=0;childLayout=stackLayout;horizontal=1;startSize=30;horizontalStack=0;resizeParent=1;resizeParentMax=0;resizeLast=0;collapsible=1;marginBottom=0;fillColor=#d5e8d4;strokeColor=#82b366;" vertex="1" parent="region-alpha">
          <mxGeometry x="20" y="40" width="280" height="340" as="geometry"/>
        </mxCell>
        
        <mxCell id="vpc-beta" value="VPC" style="swimlane;fontStyle=0;childLayout=stackLayout;horizontal=1;startSize=30;horizontalStack=0;resizeParent=1;resizeParentMax=0;resizeLast=0;collapsible=1;marginBottom=0;fillColor=#d5e8d4;strokeColor=#82b366;" vertex="1" parent="region-beta">
          <mxGeometry x="20" y="40" width="280" height="340" as="geometry"/>
        </mxCell>
        
        <!-- EKS Clusters -->
        <mxCell id="eks-alpha" value="EKS Cluster" style="rounded=1;whiteSpace=wrap;html=1;fillColor=#fff2cc;strokeColor=#d6b656;" vertex="1" parent="vpc-alpha">
          <mxGeometry x="20" y="40" width="240" height="60" as="geometry"/>
        </mxCell>
        
        <mxCell id="eks-beta" value="EKS Cluster" style="rounded=1;whiteSpace=wrap;html=1;fillColor=#fff2cc;strokeColor=#d6b656;" vertex="1" parent="vpc-beta">
          <mxGeometry x="20" y="40" width="240" height="60" as="geometry"/>
        </mxCell>
        
        <!-- EFS -->
        <mxCell id="efs-alpha" value="EFS" style="shape=mxgraph.aws4.resourceIcon;resIcon=mxgraph.aws4.efs;" vertex="1" parent="vpc-alpha">
          <mxGeometry x="20" y="120" width="78" height="78" as="geometry"/>
        </mxCell>
        
        <mxCell id="efs-beta" value="EFS" style="shape=mxgraph.aws4.resourceIcon;resIcon=mxgraph.aws4.efs;" vertex="1" parent="vpc-beta">
          <mxGeometry x="20" y="120" width="78" height="78" as="geometry"/>
        </mxCell>
        
        <!-- CloudBees CI -->
        <mxCell id="cbci-alpha" value="CloudBees CI" style="rounded=1;whiteSpace=wrap;html=1;fillColor=#f8cecc;strokeColor=#b85450;" vertex="1" parent="vpc-alpha">
          <mxGeometry x="20" y="220" width="240" height="60" as="geometry"/>
        </mxCell>
        
        <!-- Route53 -->
        <mxCell id="route53" value="Route53" style="shape=mxgraph.aws4.resourceIcon;resIcon=mxgraph.aws4.route_53;" vertex="1" parent="1">
          <mxGeometry x="360" y="480" width="78" height="78" as="geometry"/>
        </mxCell>
        
        <!-- ACM -->
        <mxCell id="acm" value="ACM" style="shape=mxgraph.aws4.resourceIcon;resIcon=mxgraph.aws4.acm;" vertex="1" parent="1">
          <mxGeometry x="360" y="580" width="78" height="78" as="geometry"/>
        </mxCell>
        
        <!-- Connections -->
        <mxCell id="efs-replication" value="EFS Replication" style="endArrow=classic;html=1;exitX=1;exitY=0.5;exitDx=0;exitDy=0;entryX=0;entryY=0.5;entryDx=0;entryDy=0;" edge="1" parent="1" source="efs-alpha" target="efs-beta">
          <mxGeometry width="50" height="50" relative="1" as="geometry">
            <mxPoint x="390" y="400" as="sourcePoint"/>
            <mxPoint x="440" y="350" as="targetPoint"/>
          </mxGeometry>
        </mxCell>
        
        <mxCell id="dns-alpha" value="DNS" style="endArrow=classic;html=1;exitX=0.5;exitY=1;exitDx=0;exitDy=0;entryX=0.5;entryY=0;entryDx=0;entryDy=0;" edge="1" parent="1" source="vpc-alpha" target="route53">
          <mxGeometry width="50" height="50" relative="1" as="geometry">
            <mxPoint x="390" y="400" as="sourcePoint"/>
            <mxPoint x="440" y="350" as="targetPoint"/>
          </mxGeometry>
        </mxCell>
        
        <mxCell id="dns-beta" value="DNS" style="endArrow=classic;html=1;exitX=0.5;exitY=1;exitDx=0;exitDy=0;entryX=0.5;entryY=0;entryDx=0;entryDy=0;" edge="1" parent="1" source="vpc-beta" target="route53">
          <mxGeometry width="50" height="50" relative="1" as="geometry">
            <mxPoint x="390" y="400" as="sourcePoint"/>
            <mxPoint x="440" y="350" as="targetPoint"/>
          </mxGeometry>
        </mxCell>
        
        <mxCell id="cert-alpha" value="Certificate" style="endArrow=classic;html=1;exitX=0.5;exitY=1;exitDx=0;exitDy=0;entryX=0.5;entryY=0;entryDx=0;entryDy=0;" edge="1" parent="1" source="vpc-alpha" target="acm">
          <mxGeometry width="50" height="50" relative="1" as="geometry">
            <mxPoint x="390" y="400" as="sourcePoint"/>
            <mxPoint x="440" y="350" as="targetPoint"/>
          </mxGeometry>
        </mxCell>
        
        <mxCell id="cert-beta" value="Certificate" style="endArrow=classic;html=1;exitX=0.5;exitY=1;exitDx=0;exitDy=0;entryX=0.5;entryY=0;entryDx=0;entryDy=0;" edge="1" parent="1" source="vpc-beta" target="acm">
          <mxGeometry width="50" height="50" relative="1" as="geometry">
            <mxPoint x="390" y="400" as="sourcePoint"/>
            <mxPoint x="440" y="350" as="targetPoint"/>
          </mxGeometry>
        </mxCell>
      </root>
    </mxGraphModel>
  </diagram>
</mxfile> 